<svg version="1.1" id="Layer_1" xmlns="http://www.w3.org/2000/svg" xmlns:xlink="http://www.w3.org/1999/xlink" x="0px" y="0px"
	 viewBox="0 0 627.6 76.7" style="enable-background:new 0 0 627.6 76.7;" xml:space="preserve">
<style type="text/css">
	.st0{fill:#FFFFFF;}
</style>
<title>Asset 1</title>
<g id="Layer_2">
	<g id="Layer_1-2">
		<polygon class="st0" points="378,2.2 360,2.2 360,66.3 366.5,74.2 414,74.2 414,58.2 378,58.2 		"/>
		<polygon class="st0" points="429,74.2 483,74.2 483,58.2 446,58.2 446,46.2 479,46.2 479,31.2 446,31.2 446,18.2 483,18.2 
			483,2.2 429,2.2 		"/>
		<path class="st0" d="M532.5,31.5l-10.2-2.4c-5.5-1.2-8.3-2.9-8.3-6.9c0-4.7,4.2-7.3,10.4-7.3c7.4,0,10.8,4.2,11.8,9.2h18.2
			C552.5,4.2,534.9,0,523.2,0c-17.2,0-28.9,9.2-28.9,23.8c0,11.6,6.8,18.3,21.1,21.4l12,2.7c6.2,1.2,7.7,3.8,7.7,6.2
			c0,4-3.5,6.4-10.3,6.4c-8.6,0-14.1-4.3-15.3-10.3h-18.1c1.7,18,16.5,25.7,32.9,25.7c18.2,0,30.2-9.1,30.2-23.7
			C554.4,39.7,545.8,34.4,532.5,31.5z"/>
		<path class="st0" d="M605.7,31.5l-10.2-2.4c-5.5-1.2-8.3-2.9-8.3-6.9c0-4.7,4.2-7.3,10.4-7.3c7.4,0,10.8,4.2,11.8,9.2h18.2
			C625.7,4.2,608.1,0,596.3,0c-17.1,0-28.9,9.2-28.9,23.8c0,11.6,6.8,18.3,21.1,21.4l12,2.7c6.2,1.2,7.7,3.8,7.7,6.2
			c0,4-3.5,6.4-10.3,6.4c-8.6,0-14.1-4.3-15.3-10.3h-18.1c1.7,18,16.5,25.7,32.9,25.7c18.2,0,30.2-9.1,30.2-23.7
			C627.6,39.7,618.9,34.4,605.7,31.5z"/>
		<path class="st0" d="M17,50.2v25H0v-72h46v16H17v15h29v16L17,50.2z M59,75.2v-72h18v56h21.5l-6.7,16H59z M165.4,75.2l-4.9-12
			h-30.4l-4.8,12h-19l30.5-72h13.2l31.1,72H165.4z M195.9,75.2l-31.1-72h19.6l20.5,48.7l20.5-48.7H245l-31.1,72H195.9z M264.4,76.7
			c-11.7,0.2-22.9-5.1-30.2-14.3l26-60.2c1.4-0.1,2.8-0.2,4.2-0.2c21.8,0,38.1,16.5,38.1,37.4S286.1,76.7,264.4,76.7L264.4,76.7z
			 M328.5,75.2L313.6,55c1.6-5.1,2.4-10.4,2.4-15.8c0.1-13.5-5.2-26.5-14.7-36h14.4c17.7,0,30.5,9.8,30.5,25.3c0,10-6,18-14.5,22.3
			L350,75.2L328.5,75.2z"/>
		<path class="st0" d="M346.1,28.5c0-15.5-12.7-25.3-30.5-25.3h-14.4c9.5,9.5,14.8,22.5,14.7,36c0,5.4-0.8,10.7-2.4,15.8l15,20.2
			h21.5l-18.5-24.4C340.1,46.5,346.1,38.5,346.1,28.5z"/>
		<polygon class="st0" points="17,34.2 17,19.2 46,19.2 46,3.2 0,3.2 0,75.2 17,75.2 17,50.2 46,50.2 46,34.2 		"/>
		<polygon class="st0" points="77,59.2 77,3.2 59,3.2 59,75.2 91.9,75.2 98.5,59.2 		"/>
		<polygon class="st0" points="136.9,3.2 106.4,75.2 125.4,75.2 130.2,63.2 160.6,63.2 165.4,75.2 181.2,75.2 150.1,3.2 		"/>
		<path class="st0" d="M302.5,39.3c0-20.9-16.4-37.4-38.1-37.4c-1.4,0-2.8,0.1-4.2,0.2l-26,60.2c7.3,9.2,18.4,14.5,30.2,14.3
			C286.1,76.7,302.5,60.2,302.5,39.3z"/>
		<polygon class="st0" points="245,3.2 225.4,3.2 204.9,51.8 184.4,3.2 164.8,3.2 195.9,75.2 213.9,75.2 		"/>
	</g>
</g>
</svg>
