<svg xmlns="http://www.w3.org/2000/svg" viewBox="0 0 627.6 76.66"><defs><style>.cls-1{fill:#fff;}</style></defs><title>Asset 1</title><g id="Layer_2" data-name="Layer 2"><g id="Layer_1-2" data-name="Layer 1"><polygon class="cls-1" points="378 2.19 360 2.19 360 66.33 366.49 74.19 414 74.19 414 58.19 378 58.19 378 2.19"/><polygon class="cls-1" points="429 74.19 483 74.19 483 58.19 446 58.19 446 46.19 479 46.19 479 31.19 446 31.19 446 18.19 483 18.19 483 2.19 429 2.19 429 74.19"/><path class="cls-1" d="M532.48,31.5,522.3,29.14c-5.46-1.18-8.35-2.89-8.35-6.85,0-4.71,4.18-7.3,10.39-7.3,7.39,0,10.82,4.2,11.78,9.2h18.21C552.5,4.19,534.94,0,523.16,0,506,0,494.24,9.22,494.24,23.78c0,11.57,6.75,18.32,21.1,21.42l12,2.68c6.21,1.18,7.71,3.75,7.71,6.21,0,4-3.53,6.4-10.28,6.4-8.57,0-14.14-4.3-15.31-10.3h-18.1c1.71,18,16.49,25.73,32.88,25.73,18.21,0,30.2-9.09,30.2-23.65C554.43,39.73,545.75,34.39,532.48,31.5Z"/><path class="cls-1" d="M605.65,31.5l-10.17-2.36c-5.46-1.18-8.35-2.89-8.35-6.85,0-4.71,4.18-7.3,10.39-7.3,7.39,0,10.82,4.2,11.78,9.2h18.21C625.67,4.19,608.11,0,596.33,0c-17.13,0-28.91,9.22-28.91,23.78,0,11.57,6.75,18.32,21.1,21.42l12,2.68c6.21,1.18,7.71,3.75,7.71,6.21,0,4-3.53,6.4-10.28,6.4-8.57,0-14.14-4.3-15.31-10.3h-18.1c1.71,18,16.49,25.73,32.88,25.73,18.21,0,30.2-9.09,30.2-23.65C627.6,39.73,618.92,34.39,605.65,31.5Z"/><path class="cls-1" d="M17,50.19v25H0v-72H46v16H17v15H46v16Zm42,25v-72H77v56H98.51l-6.65,16Zm106.44,0-4.86-12h-30.4l-4.75,12h-19l30.51-72H150.1l31.14,72Zm30.5,0-31.14-72h19.63l20.48,48.66L225.4,3.19H245l-31.14,72Zm68.46,1.47a37.8,37.8,0,0,1-30.19-14.32l26-60.2a41.64,41.64,0,0,1,4.22-.22c21.75,0,38.11,16.47,38.11,37.37S286.15,76.66,264.41,76.66Zm36.89-1.48.75-.77v.77Zm27.24,0L313.59,55A52.31,52.31,0,0,0,316,39.19a50.36,50.36,0,0,0-14.72-36h14.36c17.73,0,30.45,9.82,30.45,25.34,0,10-6,18-14.51,22.33l18.47,24.33Z"/><path class="cls-1" d="M301.29,75.18H302v-.77Z"/><path class="cls-1" d="M346.11,28.53c0-15.52-12.72-25.34-30.45-25.34H301.3a50.36,50.36,0,0,1,14.72,36A52,52,0,0,1,313.59,55l14.95,20.23h21.53L331.6,50.85C340.15,46.53,346.11,38.55,346.11,28.53Z"/><polygon class="cls-1" points="17 34.19 17 19.19 46 19.19 46 3.19 0 3.19 0 75.19 17 75.19 17 50.19 46 50.19 46 34.19 17 34.19"/><polygon class="cls-1" points="77 59.19 77 3.19 59 3.19 59 75.19 91.87 75.19 98.52 59.19 77 59.19"/><polygon class="cls-1" points="136.94 3.19 106.44 75.19 125.44 75.19 130.19 63.19 160.59 63.19 165.44 75.19 181.24 75.19 150.1 3.19 136.94 3.19"/><path class="cls-1" d="M302.51,39.29c0-20.9-16.36-37.37-38.11-37.37a41.64,41.64,0,0,0-4.22.22l-26,60.2a37.8,37.8,0,0,0,30.19,14.32C286.15,76.66,302.51,60.19,302.51,39.29Z"/><polygon class="cls-1" points="245.03 3.19 225.4 3.19 204.92 51.85 184.44 3.19 164.8 3.19 195.94 75.19 213.89 75.19 245.03 3.19"/></g></g></svg>